<svg xmlns="http://www.w3.org/2000/svg" xmlns:xlink="http://www.w3.org/1999/xlink" id="body_1" preserveAspectRatio="xMinYMin meet" viewBox="0 0 792 1121"><defs><clipPath id="1"><path id="" clip-rule="evenodd" transform="matrix(1 0 0 1 0 0)" d="M0 841L0 -0.9199829L0 -0.9199829L594.96 -0.9199829L594.96 -0.9199829L594.96 841L594.96 841L0 841z" /></clipPath><clipPath id="2"><path id="" clip-rule="evenodd" transform="matrix(1 0 0 1 0 0)" d="M29 28.08002L566.9999 28.08002L566.9999 28.08002L566.9999 812.9446L566.9999 812.9446L29 812.9446z" /></clipPath><clipPath id="3"><path id="" clip-rule="evenodd" transform="matrix(1 0 0 1 0 0)" d="M131.7978 73.10095L145.304 73.10095L145.304 73.10095L145.304 86.60718L145.304 86.60718L131.7978 86.60718z" /></clipPath><clipPath id="4"><path id="" clip-rule="evenodd" transform="matrix(1 0 0 1 0 0)" d="M29 28.08002L566.9999 28.08002L566.9999 28.08002L566.9999 812.9446L566.9999 812.9446L29 812.9446z" /></clipPath><clipPath id="5"><path id="" clip-rule="evenodd" transform="matrix(1 0 0 1 0 0)" d="M216.5871 73.10095L230.0934 73.10095L230.0934 73.10095L230.0934 86.60718L230.0934 86.60718L216.5871 86.60718z" /></clipPath><clipPath id="6"><path id="" clip-rule="evenodd" transform="matrix(1 0 0 1 0 0)" d="M29 28.08002L566.9999 28.08002L566.9999 28.08002L566.9999 812.9446L566.9999 812.9446L29 812.9446z" /></clipPath><clipPath id="7"><path id="" clip-rule="evenodd" transform="matrix(1 0 0 1 0 0)" d="M327.6388 72.35059L341.145 72.35059L341.145 72.35059L341.145 86.60724L341.145 86.60724L327.6388 86.60724z" /></clipPath><clipPath id="8"><path id="" clip-rule="evenodd" transform="matrix(1 0 0 1 0 0)" d="M29 28.08002L566.9999 28.08002L566.9999 28.08002L566.9999 812.9446L566.9999 812.9446L29 812.9446z" /></clipPath><clipPath id="9"><path id="" clip-rule="evenodd" transform="matrix(1 0 0 1 0 0)" d="M412.4282 71.60022L425.9344 71.60022L425.9344 71.60022L425.9344 87.35754L425.9344 87.35754L412.4282 87.35754z" /></clipPath><clipPath id="10"><path id="" clip-rule="evenodd" transform="matrix(1 0 0 1 0 0)" d="M29 28.08002L566.9999 28.08002L566.9999 28.08002L566.9999 812.9446L566.9999 812.9446L29 812.9446z" /></clipPath><clipPath id="11"><path id="" clip-rule="evenodd" transform="matrix(1 0 0 1 0 0)" d="M29 28.08002L567 28.08002L567 28.08002L567 813.08L567 813.08L29 813.08z" /></clipPath><clipPath id="12"><path id="" clip-rule="evenodd" transform="matrix(1 0 0 1 0 0)" d="M29 28.08002L566.9999 28.08002L566.9999 28.08002L566.9999 812.9446L566.9999 812.9446L29 812.9446z" /></clipPath><clipPath id="13"><path id="" clip-rule="evenodd" transform="matrix(1 0 0 1 0 0)" d="M440.7256 82.1051L436.1985 82.1051L436.1985 82.1051L436.1985 84.5813L436.1985 84.5813L440.7256 84.5813L440.7256 84.5813L440.7256 82.1051zM566.9999 28.08002L29 28.08002L29 28.08002L29 812.9446L29 812.9446L566.9999 812.9446L566.9999 812.9446L566.9999 28.08002z" /></clipPath><clipPath id="14"><path id="" clip-rule="evenodd" transform="matrix(1 0 0 1 0 0)" d="M465.2458 82.1051L458.4367 82.1051L458.4367 82.1051L458.4367 84.5813L458.4367 84.5813L465.2458 84.5813L465.2458 84.5813L465.2458 82.1051zM566.9999 28.08002L29 28.08002L29 28.08002L29 812.9446L29 812.9446L566.9999 812.9446L566.9999 812.9446L566.9999 28.08002z" /></clipPath><clipPath id="15"><path id="" clip-rule="evenodd" transform="matrix(1 0 0 1 0 0)" d="M29 28.08002L566.9999 28.08002L566.9999 28.08002L566.9999 812.9446L566.9999 812.9446L29 812.9446z" /></clipPath><clipPath id="16"><path id="" clip-rule="evenodd" transform="matrix(1 0 0 1 0 0)" d="M75.52161 99.36316L87.5272 99.36316L87.5272 99.36316L87.5272 111.3687L87.5272 111.3687L75.52161 111.3687z" /></clipPath><clipPath id="17"><path id="" clip-rule="evenodd" transform="matrix(1 0 0 1 0 0)" d="M29 28.08002L566.9999 28.08002L566.9999 28.08002L566.9999 812.9446L566.9999 812.9446L29 812.9446z" /></clipPath><clipPath id="18"><path id="" clip-rule="evenodd" transform="matrix(1 0 0 1 0 0)" d="M75.52161 190.9056L87.5272 190.9056L87.5272 190.9056L87.5272 200.6602L87.5272 200.6602L75.52161 200.6602z" /></clipPath><clipPath id="19"><path id="" clip-rule="evenodd" transform="matrix(1 0 0 1 0 0)" d="M29 28.08002L566.9999 28.08002L566.9999 28.08002L566.9999 812.9446L566.9999 812.9446L29 812.9446z" /></clipPath><clipPath id="20"><path id="" clip-rule="evenodd" transform="matrix(1 0 0 1 0 0)" d="M75.52161 279.4468L87.5272 279.4468L87.5272 279.4468L87.5272 291.4524L87.5272 291.4524L75.52161 291.4524z" /></clipPath><clipPath id="21"><path id="" clip-rule="evenodd" transform="matrix(1 0 0 1 0 0)" d="M29 28.08002L566.9999 28.08002L566.9999 28.08002L566.9999 812.9446L566.9999 812.9446L29 812.9446z" /></clipPath><clipPath id="22"><path id="" clip-rule="evenodd" transform="matrix(1 0 0 1 0 0)" d="M75.52161 342.4761L87.5272 342.4761L87.5272 342.4761L87.5272 352.2306L87.5272 352.2306L75.52161 352.2306z" /></clipPath><clipPath id="23"><path id="" clip-rule="evenodd" transform="matrix(1 0 0 1 0 0)" d="M29 28.08002L566.9999 28.08002L566.9999 28.08002L566.9999 812.9446L566.9999 812.9446L29 812.9446z" /></clipPath><clipPath id="24"><path id="" clip-rule="evenodd" transform="matrix(1 0 0 1 0 0)" d="M29 28.08002L567 28.08002L567 28.08002L567 813.08L567 813.08L29 813.08z" /></clipPath><clipPath id="25"><path id="" clip-rule="evenodd" transform="matrix(1 0 0 1 0 0)" d="M29 28.08002L566.9999 28.08002L566.9999 28.08002L566.9999 812.9446L566.9999 812.9446L29 812.9446z" /></clipPath><clipPath id="26"><path id="" clip-rule="evenodd" transform="matrix(1 0 0 1 0 0)" d="M296.42 403.2543L293.6784 403.2543L293.6784 403.2543L293.6784 405.7305L293.6784 405.7305L296.42 405.7305L296.42 405.7305L296.42 403.2543zM566.9999 28.08002L29 28.08002L29 28.08002L29 812.9446L29 812.9446L566.9999 812.9446L566.9999 812.9446L566.9999 28.08002z" /></clipPath><clipPath id="27"><path id="" clip-rule="evenodd" transform="matrix(1 0 0 1 0 0)" d="M345.5832 403.2543L338.774 403.2543L338.774 403.2543L338.774 405.7305L338.774 405.7305L345.5832 405.7305L345.5832 405.7305L345.5832 403.2543zM566.9999 28.08002L29 28.08002L29 28.08002L29 812.9446L29 812.9446L566.9999 812.9446L566.9999 812.9446L566.9999 28.08002z" /></clipPath><clipPath id="28"><path id="" clip-rule="evenodd" transform="matrix(1 0 0 1 0 0)" d="M29 28.08002L566.9999 28.08002L566.9999 28.08002L566.9999 812.9446L566.9999 812.9446L29 812.9446z" /></clipPath><clipPath id="29"><path id="" clip-rule="evenodd" transform="matrix(1 0 0 1 0 0)" d="M75.52161 419.0117L87.5272 419.0117L87.5272 419.0117L87.5272 431.0172L87.5272 431.0172L75.52161 431.0172z" /></clipPath><clipPath id="30"><path id="" clip-rule="evenodd" transform="matrix(1 0 0 1 0 0)" d="M29 28.08002L566.9999 28.08002L566.9999 28.08002L566.9999 812.9446L566.9999 812.9446L29 812.9446z" /></clipPath></defs><g transform="matrix(1.333333 0 0 1.333333 0 0)"><g clip-path="url(#1)"><g clip-path="url(#2)"><path id="1" transform="matrix(1 0 0 -1 0 841)" d="M29 812.92L566.9999 812.92L566.9999 28.0553L29 28.0553z" stroke="none" fill="#FFFFFF" fill-rule="nonzero" /><path id="2" transform="matrix(1 0 0 -1 0 841)" d="M29.75035 812.1696L566.2496 812.1696L566.2496 28.80566L29.75035 28.80566z" stroke="none" fill="#FFFFFF" fill-rule="nonzero" /></g><g clip-path="url(#3)"><path id="3" transform="matrix(1 0 0 -1 0 841)" d="M144.8134 767.2501L142.0699 767.8832C 141.7718 767.9518 141.4658 767.7961 141.3445 767.5165L141.3445 767.5165L140.0783 764.5621C 139.9675 764.3035 140.0413 764.0002 140.2603 763.8234L140.2603 763.8234L141.8589 762.515C 140.9092 760.4917 139.25 758.8087 137.1844 757.8406L137.1844 757.8406L135.876 759.4391C 135.6966 759.6581 135.3959 759.732 135.1374 759.6212L135.1374 759.6212L132.1829 758.355C 131.9006 758.231 131.745 757.925 131.8136 757.6269L131.8136 757.6269L132.4467 754.8834C 132.5126 754.5985 132.7659 754.3928 133.064 754.3928C 139.8197 754.3928 145.304 759.8665 145.304 766.6328C 145.304 766.9283 145.1009 767.1841 144.8134 767.2501z" stroke="none" fill="#000000" fill-rule="nonzero" /></g><g clip-path="url(#4)"></g><g clip-path="url(#5)"><path id="19" transform="matrix(1 0 0 -1 0 841)" d="M223.3403 759.4576C 223.9523 759.4471 224.8334 760.2279 225.2765 760.5497C 228.7771 763.0901 229.0435 763.3116 229.8507 763.9448C 230.0037 764.0635 230.0934 764.2481 230.0934 764.4434L230.0934 764.4434L230.0934 764.9446C 230.0934 765.6436 229.5263 766.2108 228.8272 766.2108L228.8272 766.2108L217.8534 766.2108C 217.1543 766.2108 216.5871 765.6436 216.5871 764.9446L216.5871 764.9446L216.5871 764.4434C 216.5871 764.2481 216.6768 764.0661 216.8298 763.9448C 217.637 763.3143 217.9035 763.0901 221.404 760.5497C 221.8472 760.2279 222.7283 759.4471 223.3403 759.4576L223.3403 759.4576L223.3403 759.4576zM229.8375 762.8658C 229.9404 762.9476 230.0934 762.8712 230.0934 762.7419L230.0934 762.7419L230.0934 757.3473C 230.0934 756.6482 229.5263 756.0811 228.8272 756.0811L228.8272 756.0811L217.8534 756.0811C 217.1543 756.0811 216.5871 756.6482 216.5871 757.3473L216.5871 757.3473L216.5871 762.7393C 216.5871 762.8712 216.7375 762.945 216.843 762.8632C 217.4339 762.4042 218.2174 761.8212 220.9081 759.8665C 221.4647 759.4603 222.4038 758.6056 223.3403 758.6108C 224.282 758.6029 225.2396 759.4761 225.7751 759.8665C 228.4658 761.8212 229.2466 762.4069 229.8375 762.8658z" stroke="none" fill="#000000" fill-rule="nonzero" /></g><g clip-path="url(#6)"></g><g clip-path="url(#7)"><path id="40" transform="matrix(1 0 0 -1 0 841)" d="M330.5638 758.2353C 330.5202 758.2068 330.5202 758.1328 330.5638 758.0673C 330.6074 758.0018 330.6809 757.9733 330.7163 758.0018C 330.7598 758.0388 330.7598 758.1128 330.7163 758.1783C 330.6782 758.2438 330.6074 758.2723 330.5638 758.2353L330.5638 758.2353L330.5638 758.2353zM330.8742 757.8167C 330.8306 757.7797 330.847 757.6942 330.9096 757.6401C 330.9722 757.5746 331.0511 757.566 331.0865 757.6116C 331.1219 757.6486 331.1056 757.7341 331.0511 757.7882C 330.9912 757.8537 330.9096 757.8622 330.8742 757.8167zM329.992 758.8304C 329.973 758.7935 330.0002 758.7479 330.0547 758.7194C 330.0982 758.6909 330.1527 758.6995 330.1717 758.7393C 330.1908 758.7764 330.1636 758.8219 330.1091 758.8504C 330.0547 758.8675 330.0111 758.8589 329.992 758.8304zM330.2861 758.5998C 330.2507 758.5713 330.2589 758.5058 330.3051 758.4517C 330.3487 758.4061 330.4113 758.3862 330.4467 758.4232C 330.4821 758.4517 330.4739 758.5172 330.4277 758.5713C 330.3841 758.6169 330.3215 758.6368 330.2861 758.5998zM334.3047 768.4216C 330.5284 768.4216 327.6396 765.4229 327.6396 761.4731C 327.6396 758.315 329.5401 755.6125 332.2546 754.6614C 332.6031 754.5959 332.7256 754.8209 332.7256 755.0059C 332.7256 755.1825 332.7174 756.1564 332.7174 756.7545C 332.7174 756.7545 330.8116 756.3273 330.4113 757.6031C 330.4113 757.6031 330.101 758.4318 329.6544 758.6453C 329.6544 758.6453 329.0309 759.0925 329.698 759.0839C 329.698 759.0839 330.3759 759.0269 330.7489 758.3492C 331.3452 757.2499 332.3444 757.566 332.7338 757.754C 332.7964 758.2097 332.9734 758.5258 333.1694 758.7137C 331.6474 758.8903 330.1118 759.1209 330.1118 761.8604C 330.1118 762.6436 330.3188 763.0366 330.7544 763.5377C 330.6836 763.7228 330.4522 764.486 330.8252 765.4714C 331.3942 765.6564 332.7038 764.7025 332.7038 764.7025C 333.2484 764.8619 333.8337 764.9445 334.4137 764.9445C 334.9936 764.9445 335.5789 764.8619 336.1235 764.7025C 336.1235 764.7025 337.4331 765.6593 338.0021 765.4714C 338.3751 764.4832 338.1437 763.7228 338.0729 763.5377C 338.5085 763.0337 338.7754 762.6407 338.7754 761.8604C 338.7754 759.1124 337.1717 758.8931 335.6497 758.7137C 335.9002 758.4887 336.1126 758.0616 336.1126 757.3923C 336.1126 756.4327 336.1044 755.2452 336.1044 755.0117C 336.1044 754.8265 336.2297 754.6016 336.5754 754.6671C 339.2981 755.6125 341.1441 758.315 341.1441 761.4731C 341.1441 765.4229 338.0811 768.4216 334.3047 768.4216zM332.5132 757.5091C 332.4343 757.4892 332.3798 757.4351 332.388 757.3696C 332.3961 757.3126 332.4669 757.2756 332.5486 757.2955C 332.6276 757.3154 332.682 757.3696 332.6739 757.4265C 332.6657 757.4807 332.5922 757.5176 332.5132 757.5091zM331.3098 757.4607C 331.2907 757.4037 331.3452 757.3383 331.4269 757.3212C 331.4977 757.2927 331.5793 757.3212 331.5957 757.3781C 331.612 757.4351 331.5603 757.5005 331.4786 757.5262C 331.4078 757.5461 331.3289 757.5176 331.3098 757.4607L331.3098 757.4607L331.3098 757.4607zM332.1566 757.3325C 332.1566 757.2756 332.0939 757.23 332.015 757.23C 331.9251 757.2215 331.8625 757.267 331.8625 757.3325C 331.8625 757.3895 331.9251 757.4351 332.0041 757.4351C 332.0858 757.4436 332.1566 757.3981 332.1566 757.3325z" stroke="none" fill="#000000" fill-rule="nonzero" /></g><g clip-path="url(#8)"><path id="42" transform="matrix(1 0 0 -1 0 841)" d="M343.9354 758.1445L404.5963 758.1445L404.5963 757.3942L343.9354 757.3942z" stroke="none" fill="#555555" fill-rule="nonzero" /></g><g clip-path="url(#9)"><path id="56" transform="matrix(1 0 0 -1 0 841)" d="M425.9312 754.8316C 425.6782 762.1808 420.0089 768.1285 412.9284 768.3936C 412.6563 768.4038 412.4311 768.1745 412.4311 767.8906L412.4311 767.8906L412.4311 766.3797C 412.4311 766.1086 412.637 765.888 412.8967 765.8768C 418.6579 765.6305 423.282 760.8066 423.5182 754.7986C 423.5288 754.5277 423.7404 754.3129 424.0003 754.3129L424.0003 754.3129L425.4489 754.3129C 425.7211 754.3129 425.9409 754.5478 425.9312 754.8316zM421.5843 754.8407C 421.3325 759.6999 417.6009 763.5969 412.937 763.8597C 412.6618 763.8753 412.4311 763.6446 412.4311 763.3571L412.4311 763.3571L412.4311 761.8462C 412.4311 761.5817 412.6266 761.3599 412.8797 761.3427C 416.2497 761.1138 418.951 758.3033 419.171 754.7809C 419.1875 754.517 419.4001 754.3129 419.6537 754.3129L419.6537 754.3129L421.1022 754.3129C 421.378 754.3129 421.5992 754.5535 421.5843 754.8407L421.5843 754.8407L421.5843 754.8407zM416.2908 756.3258C 416.2908 755.2141 415.4267 754.3129 414.3609 754.3129C 413.295 754.3129 412.4311 755.2141 412.4311 756.3258C 412.4311 757.4374 413.2951 758.3386 414.3609 758.3386C 415.4268 758.3386 416.2908 757.4374 416.2908 756.3258L416.2908 756.3258L416.2908 756.3258z" stroke="none" fill="#000000" fill-rule="nonzero" /></g><g clip-path="url(#10)"></g><g clip-path="url(#11)"><g clip-path="url(#12)"><g clip-path="url(#13)"><g clip-path="url(#14)"><path id="58" transform="matrix(1 0 0 -1 0 841)" d="M428.291 758.1445L464.5656 758.1445L464.5656 757.3942L428.291 757.3942z" stroke="none" fill="#555555" fill-rule="nonzero" /></g></g></g></g><g clip-path="url(#15)"><path id="66" transform="matrix(1 0 0 -1 0 841)" d="M75.52161 773.1515L520.4783 773.1515L520.4783 772.4012L75.52161 772.4012z" stroke="none" fill="#EEEEEE" fill-rule="nonzero" /><path id="69" transform="matrix(1 0 0 -1 0 841)" d="M75.52161 726.6299L520.4783 726.6299L520.4783 725.8795L75.52161 725.8795z" stroke="none" fill="#EEEEEE" fill-rule="nonzero" /></g><g clip-path="url(#16)"><path id="70" transform="matrix(1 0 0 -1 0 841)" d="M82.83751 732.9141C 82.83751 732.7587 82.71152 732.6326 82.55613 732.6326L82.55613 732.6326L80.49268 732.6326C 80.33728 732.6326 80.2113 732.7587 80.2113 732.9141L80.2113 732.9141L80.2113 733.4768C 80.2113 733.6322 80.33728 733.7582 80.49268 733.7582L80.49268 733.7582L80.77406 733.7582L80.77406 733.7582L80.77406 735.2589L80.77406 735.2589L80.49268 735.2589C 80.33728 735.2589 80.2113 735.3849 80.2113 735.5403L80.2113 735.5403L80.2113 736.103C 80.2113 736.2584 80.33728 736.3844 80.49268 736.3844L80.49268 736.3844L81.99337 736.3844C 82.14877 736.3844 82.27475 736.2584 82.27475 736.103L82.27475 736.103L82.27475 733.7582L82.27475 733.7582L82.55613 733.7582C 82.71152 733.7582 82.83751 733.6322 82.83751 733.4768L82.83751 733.4768L82.83751 732.9141zM81.5244 738.8699C 82.06831 738.8699 82.50923 738.429 82.50923 737.8851C 82.50923 737.3412 82.06831 736.9003 81.5244 736.9003C 80.98049 736.9003 80.53957 737.3412 80.53957 737.8851C 80.53957 738.429 80.98049 738.8699 81.5244 738.8699zM81.5244 741.4493C 78.31298 741.4493 75.7092 738.8445 75.7092 735.634C 75.7092 732.4217 78.31298 729.8188 81.5244 729.8188C 84.73582 729.8188 87.33961 732.4217 87.33961 735.634C 87.33961 738.8445 84.73582 741.4493 81.5244 741.4493z" stroke="none" fill="#000000" fill-rule="nonzero" /></g><g clip-path="url(#17)"><path id="77" transform="matrix(1 0 0 -1 0 841)" d="M109.2873 715.7498C 109.2873 715.5011 109.2397 715.2618 109.1445 715.032C 109.0493 714.8021 108.9138 714.5993 108.7379 714.4234C 108.562 714.2475 108.3591 714.1119 108.1293 714.0168C 107.8995 713.9216 107.6602 713.874 107.4114 713.874C 107.1627 713.874 106.9234 713.9216 106.6936 714.0168C 106.4637 714.1119 106.2609 714.2475 106.085 714.4234C 105.9091 714.5993 105.7735 714.8021 105.6783 715.032C 105.5831 715.2618 105.5355 715.5011 105.5356 715.7498C 105.5355 715.9986 105.5832 716.2379 105.6783 716.4677C 105.7735 716.6976 105.9091 716.9004 106.085 717.0763C 106.2609 717.2522 106.4637 717.3878 106.6936 717.4829C 106.9234 717.5781 107.1627 717.6257 107.4114 717.6257C 107.6602 717.6257 107.8995 717.5781 108.1293 717.4829C 108.3591 717.3878 108.562 717.2522 108.7379 717.0763C 108.9138 716.9004 109.0493 716.6975 109.1445 716.4677C 109.2397 716.2379 109.2873 715.9986 109.2873 715.7498z" stroke="none" fill="#333333" fill-rule="nonzero" /><path id="87" transform="matrix(1 0 0 -1 0 841)" d="M109.2873 700.7429C 109.2873 700.4941 109.2397 700.2548 109.1445 700.025C 109.0493 699.7952 108.9138 699.5923 108.7379 699.4164C 108.562 699.2405 108.3591 699.105 108.1293 699.0098C 107.8995 698.9146 107.6602 698.867 107.4114 698.867C 107.1627 698.867 106.9234 698.9146 106.6936 699.0098C 106.4637 699.105 106.2609 699.2405 106.085 699.4164C 105.9091 699.5923 105.7735 699.7952 105.6783 700.025C 105.5831 700.2548 105.5355 700.4941 105.5356 700.7429C 105.5355 700.9916 105.5832 701.2309 105.6783 701.4608C 105.7735 701.6906 105.9091 701.8934 106.085 702.0693C 106.2609 702.2452 106.4637 702.3807 106.6936 702.476C 106.9234 702.5712 107.1627 702.6187 107.4114 702.6187C 107.6602 702.6187 107.8995 702.5712 108.1293 702.476C 108.3591 702.3807 108.562 702.2452 108.7379 702.0693C 108.9138 701.8934 109.0493 701.6906 109.1445 701.4608C 109.2397 701.2309 109.2873 700.9916 109.2873 700.7429z" stroke="none" fill="#333333" fill-rule="nonzero" /><path id="98" transform="matrix(1 0 0 -1 0 841)" d="M109.2873 685.7359C 109.2873 685.4871 109.2397 685.2479 109.1445 685.0181C 109.0493 684.7882 108.9138 684.5853 108.7379 684.4094C 108.562 684.2335 108.3591 684.098 108.1293 684.0028C 107.8995 683.9076 107.6602 683.86 107.4114 683.86C 107.1627 683.86 106.9234 683.9076 106.6936 684.0028C 106.4637 684.098 106.2609 684.2335 106.085 684.4094C 105.9091 684.5853 105.7735 684.7882 105.6783 685.0181C 105.5831 685.2479 105.5355 685.4871 105.5356 685.7359C 105.5355 685.9846 105.5832 686.2239 105.6783 686.4538C 105.7735 686.6836 105.9091 686.8865 106.085 687.0623C 106.2609 687.2382 106.4637 687.3738 106.6936 687.469C 106.9234 687.5641 107.1627 687.6118 107.4114 687.6118C 107.6602 687.6118 107.8995 687.5641 108.1293 687.469C 108.3591 687.3738 108.562 687.2382 108.7379 687.0623C 108.9138 686.8865 109.0493 686.6836 109.1445 686.4538C 109.2397 686.2239 109.2873 685.9846 109.2873 685.7359z" stroke="none" fill="#333333" fill-rule="nonzero" /><path id="106" transform="matrix(1 0 0 -1 0 841)" d="M109.2873 670.7289C 109.2873 670.4802 109.2397 670.2409 109.1445 670.0111C 109.0493 669.7813 108.9138 669.5784 108.7379 669.4025C 108.562 669.2266 108.3591 669.0911 108.1293 668.9958C 107.8995 668.9006 107.6602 668.853 107.4114 668.853C 107.1627 668.853 106.9234 668.9006 106.6936 668.9958C 106.4637 669.0911 106.2609 669.2266 106.085 669.4025C 105.9091 669.5784 105.7735 669.7813 105.6783 670.0111C 105.5831 670.2409 105.5355 670.4802 105.5356 670.7289C 105.5355 670.9777 105.5832 671.217 105.6783 671.4468C 105.7735 671.6766 105.9091 671.8795 106.085 672.0554C 106.2609 672.2313 106.4637 672.3668 106.6936 672.462C 106.9234 672.5572 107.1627 672.6048 107.4114 672.6048C 107.6602 672.6048 107.8995 672.5572 108.1293 672.462C 108.3591 672.3668 108.562 672.2313 108.7379 672.0554C 108.9138 671.8795 109.0493 671.6766 109.1445 671.4468C 109.2397 671.217 109.2873 670.9777 109.2873 670.7289z" stroke="none" fill="#333333" fill-rule="nonzero" /><path id="117" transform="matrix(1 0 0 -1 0 841)" d="M75.52161 636.5881L520.4783 636.5881L520.4783 635.8377L75.52161 635.8377z" stroke="none" fill="#EEEEEE" fill-rule="nonzero" /></g><g clip-path="url(#18)"><path id="118" transform="matrix(1 0 0 -1 0 841)" d="M82.13935 643.996C 81.60429 643.8264 81.14838 643.9201 80.90926 643.996L80.90926 643.996L78.18954 644.8582L78.18954 644.8582L77.92361 642.6623C 77.92361 641.9781 79.53571 641.4236 81.5244 641.4236C 83.51309 641.4236 85.1252 641.9781 85.1252 642.6623L85.1252 642.6623L84.85926 644.8584L84.85926 644.8584L82.13935 643.996zM87.19453 647.1292L81.96325 648.7879C 81.67818 648.8783 81.37062 648.8783 81.08574 648.7879L81.08574 648.7879L75.85428 647.1292C 75.4128 646.9893 75.4128 646.3868 75.85428 646.2469L75.85428 646.2469L76.76629 645.9577C 76.56618 645.7025 76.44315 645.3911 76.43097 645.05C 76.25037 644.9432 76.12321 644.7504 76.12321 644.5203C 76.12321 644.3116 76.22974 644.1361 76.38314 644.0239L76.38314 644.0239L75.90435 641.8004C 75.86272 641.6071 76.00525 641.4236 76.19711 641.4236L76.19711 641.4236L77.2494 641.4236C 77.44144 641.4236 77.58397 641.6071 77.54234 641.8004L77.54234 641.8004L77.06355 644.0239C 77.21695 644.1361 77.32348 644.3116 77.32348 644.5203C 77.32348 644.7442 77.20213 644.9316 77.02979 645.0403C 77.04404 645.3311 77.18807 645.5881 77.41781 645.751L77.41781 645.751L81.08556 644.588C 81.25547 644.5342 81.58141 644.467 81.96306 644.588L81.96306 644.588L87.19453 646.2467C 87.63618 646.3868 87.63618 646.9891 87.19453 647.1292L87.19453 647.1292L87.19453 647.1292z" stroke="none" fill="#000000" fill-rule="nonzero" /></g><g clip-path="url(#19)"><path id="125" transform="matrix(1 0 0 -1 0 841)" d="M109.2873 625.708C 109.2873 625.4592 109.2397 625.22 109.1445 624.9901C 109.0493 624.7603 108.9138 624.5575 108.7379 624.3816C 108.562 624.2057 108.3591 624.0701 108.1293 623.9749C 107.8995 623.8798 107.6602 623.8322 107.4114 623.8322C 107.1627 623.8322 106.9234 623.8798 106.6936 623.975C 106.4637 624.0701 106.2609 624.2057 106.085 624.3816C 105.9091 624.5575 105.7735 624.7603 105.6783 624.9902C 105.5831 625.22 105.5355 625.4592 105.5356 625.708C 105.5355 625.9568 105.5832 626.196 105.6783 626.4259C 105.7735 626.6557 105.9091 626.8586 106.085 627.0344C 106.2609 627.2103 106.4637 627.3459 106.6936 627.4411C 106.9234 627.5363 107.1627 627.5839 107.4114 627.5839C 107.6602 627.5839 107.8995 627.5363 108.1293 627.4411C 108.3591 627.3459 108.562 627.2103 108.7379 627.0344C 108.9138 626.8586 109.0493 626.6557 109.1445 626.4259C 109.2397 626.196 109.2873 625.9568 109.2873 625.708z" stroke="none" fill="#333333" fill-rule="nonzero" /><path id="193" transform="matrix(1 0 0 -1 0 841)" d="M109.2873 610.701C 109.2873 610.4523 109.2397 610.213 109.1445 609.9832C 109.0493 609.7534 108.9138 609.5505 108.7379 609.3746C 108.562 609.1987 108.3591 609.0632 108.1293 608.968C 107.8995 608.8728 107.6602 608.8252 107.4114 608.8251C 107.1627 608.8252 106.9234 608.8728 106.6936 608.968C 106.4637 609.0632 106.2609 609.1987 106.085 609.3746C 105.9091 609.5505 105.7735 609.7534 105.6783 609.9832C 105.5831 610.213 105.5355 610.4523 105.5356 610.701C 105.5355 610.9498 105.5832 611.1891 105.6783 611.4189C 105.7735 611.6487 105.9091 611.8516 106.085 612.0275C 106.2609 612.2034 106.4637 612.3389 106.6936 612.4341C 106.9234 612.5293 107.1627 612.5769 107.4114 612.5769C 107.6602 612.5769 107.8995 612.5293 108.1293 612.4341C 108.3591 612.3389 108.562 612.2034 108.7379 612.0275C 108.9138 611.8516 109.0493 611.6487 109.1445 611.4189C 109.2397 611.1891 109.2873 610.9498 109.2873 610.701z" stroke="none" fill="#333333" fill-rule="nonzero" /><path id="222" transform="matrix(1 0 0 -1 0 841)" d="M109.2873 595.6941C 109.2873 595.4453 109.2397 595.2061 109.1445 594.9763C 109.0493 594.7465 108.9138 594.5436 108.7379 594.3677C 108.562 594.1918 108.3591 594.0562 108.1293 593.961C 107.8995 593.8658 107.6602 593.8182 107.4114 593.8182C 107.1627 593.8182 106.9234 593.8658 106.6936 593.961C 106.4637 594.0562 106.2609 594.1918 106.085 594.3677C 105.9091 594.5436 105.7735 594.7465 105.6783 594.9763C 105.5831 595.2061 105.5355 595.4453 105.5356 595.6941C 105.5355 595.9428 105.5832 596.1821 105.6783 596.412C 105.7735 596.6418 105.9091 596.8446 106.085 597.0205C 106.2609 597.1964 106.4637 597.332 106.6936 597.4271C 106.9234 597.5223 107.1627 597.5699 107.4114 597.5699C 107.6602 597.5699 107.8995 597.5223 108.1293 597.4271C 108.3591 597.332 108.562 597.1964 108.7379 597.0205C 108.9138 596.8446 109.0493 596.6418 109.1445 596.412C 109.2397 596.1821 109.2873 595.9428 109.2873 595.6941z" stroke="none" fill="#333333" fill-rule="nonzero" /><path id="234" transform="matrix(1 0 0 -1 0 841)" d="M109.2873 580.6871C 109.2873 580.4384 109.2397 580.199 109.1445 579.9692C 109.0493 579.7394 108.9138 579.5366 108.7379 579.3607C 108.562 579.1848 108.3591 579.0492 108.1293 578.954C 107.8995 578.8588 107.6602 578.8112 107.4114 578.8112C 107.1627 578.8112 106.9234 578.8588 106.6936 578.954C 106.4637 579.0492 106.2609 579.1848 106.085 579.3607C 105.9091 579.5366 105.7735 579.7394 105.6783 579.9692C 105.5831 580.199 105.5355 580.4384 105.5356 580.6871C 105.5355 580.9359 105.5832 581.1752 105.6783 581.405C 105.7735 581.6348 105.9091 581.8376 106.085 582.0135C 106.2609 582.1895 106.4637 582.325 106.6936 582.4202C 106.9234 582.5154 107.1627 582.563 107.4114 582.563C 107.6602 582.563 107.8995 582.5154 108.1293 582.4202C 108.3591 582.325 108.562 582.1895 108.7379 582.0135C 108.9138 581.8376 109.0493 581.6348 109.1445 581.405C 109.2397 581.1752 109.2873 580.9359 109.2873 580.6871z" stroke="none" fill="#333333" fill-rule="nonzero" /><path id="255" transform="matrix(1 0 0 -1 0 841)" d="M75.52161 546.5463L520.4783 546.5463L520.4783 545.7959L75.52161 545.7959z" stroke="none" fill="#EEEEEE" fill-rule="nonzero" /></g><g clip-path="url(#20)"><path id="256" transform="matrix(1 0 0 -1 0 841)" d="M83.0251 558.5518L80.0237 558.5518L80.0237 559.3021L83.0251 559.3021L83.0251 558.5518zM86.40167 558.5518L84.52579 558.5518L84.52579 558.5518L84.52579 559.6773C 84.52579 560.2776 84.00055 560.8028 83.40028 560.8028L83.40028 560.8028L79.64853 560.8028C 79.04825 560.8028 78.52301 560.2776 78.52301 559.6773L78.52301 559.6773L78.52301 558.5518L78.52301 558.5518L76.64714 558.5518C 76.04686 558.5518 75.52161 558.0266 75.52161 557.4263L75.52161 557.4263L75.52161 555.5504L75.52161 555.5504L87.52719 555.5504L87.52719 555.5504L87.52719 557.4263C 87.52719 558.0266 87.00195 558.5518 86.40167 558.5518zM83.0251 553.6745C 83.0251 553.4672 82.85721 553.2993 82.64993 553.2993L82.64993 553.2993L80.39888 553.2993C 80.1916 553.2993 80.0237 553.4672 80.0237 553.6745L80.0237 553.6745L80.0237 554.8L80.0237 554.8L75.52161 554.8L75.52161 554.8L75.52161 551.4235C 75.52161 550.8232 76.04686 550.2979 76.64714 550.2979L76.64714 550.2979L86.40167 550.2979C 87.00195 550.2979 87.52719 550.8232 87.52719 551.4235L87.52719 551.4235L87.52719 554.8L87.52719 554.8L83.0251 554.8L83.0251 554.8L83.0251 553.6745z" stroke="none" fill="#000000" fill-rule="nonzero" /></g><g clip-path="url(#21)"><path id="263" transform="matrix(1 0 0 -1 0 841)" d="M109.2873 535.6661C 109.2873 535.4174 109.2397 535.1781 109.1445 534.9484C 109.0493 534.7185 108.9138 534.5156 108.7379 534.3397C 108.562 534.1639 108.3591 534.0283 108.1293 533.9331C 107.8995 533.8379 107.6602 533.7903 107.4114 533.7903C 107.1627 533.7903 106.9234 533.8379 106.6936 533.9331C 106.4637 534.0283 106.2609 534.1639 106.085 534.3397C 105.9091 534.5156 105.7735 534.7185 105.6783 534.9484C 105.5831 535.1781 105.5355 535.4174 105.5356 535.6661C 105.5355 535.9149 105.5832 536.1542 105.6783 536.384C 105.7735 536.6139 105.9091 536.8168 106.085 536.9926C 106.2609 537.1685 106.4637 537.3041 106.6936 537.3993C 106.9234 537.4944 107.1627 537.542 107.4114 537.542C 107.6602 537.542 107.8995 537.4944 108.1293 537.3993C 108.3591 537.3041 108.562 537.1685 108.7379 536.9926C 108.9138 536.8168 109.0493 536.6139 109.1445 536.384C 109.2397 536.1542 109.2873 535.9149 109.2873 535.6661z" stroke="none" fill="#333333" fill-rule="nonzero" /><path id="286" transform="matrix(1 0 0 -1 0 841)" d="M75.52161 485.0176L520.4783 485.0176L520.4783 484.2673L75.52161 484.2673z" stroke="none" fill="#EEEEEE" fill-rule="nonzero" /></g><g clip-path="url(#22)"><path id="287" transform="matrix(1 0 0 -1 0 841)" d="M86.92559 498.5239L84.52506 498.5239C 84.19368 498.5239 83.92493 498.2466 83.92493 497.9046L83.92493 497.9046L83.92493 495.4272C 83.92493 495.0852 84.19368 494.8079 84.52506 494.8079L84.52506 494.8079L86.92559 494.8079C 87.25698 494.8079 87.52573 495.0852 87.52573 495.4272L87.52573 495.4272L87.52573 497.9046C 87.52573 498.2466 87.25698 498.5239 86.92559 498.5239zM79.12387 497.9046C 79.12387 498.2466 78.85513 498.5239 78.52374 498.5239L78.52374 498.5239L76.12321 498.5239C 75.79182 498.5239 75.52308 498.2466 75.52308 497.9046L75.52308 497.9046L75.52308 495.4272C 75.52308 495.0852 75.79182 494.8079 76.12321 494.8079L76.12321 494.8079L77.91836 494.8079L77.91836 494.8079L79.29041 492.3298C 79.49858 492.6987 79.88154 492.9499 80.32413 492.9499L80.32413 492.9499L80.32939 492.9499L80.32939 492.9499L79.12387 495.127L79.12387 495.127L79.12387 496.0465L79.12387 496.0465L83.3248 496.0465L83.3248 496.0465L83.3248 497.2852L83.3248 497.2852L79.12387 497.2852L79.12387 497.2852L79.12387 497.9046zM82.72467 492.3305L80.32413 492.3305C 79.99275 492.3305 79.72401 492.0532 79.72401 491.7112L79.72401 491.7112L79.72401 489.2339C 79.72401 488.8919 79.99275 488.6145 80.32413 488.6145L80.32413 488.6145L82.72467 488.6145C 83.05605 488.6145 83.3248 488.8919 83.3248 489.2339L83.3248 489.2339L83.3248 491.7112C 83.3248 492.0532 83.05605 492.3305 82.72467 492.3305z" stroke="none" fill="#000000" fill-rule="nonzero" /></g><g clip-path="url(#23)"><path id="294" transform="matrix(1 0 0 -1 0 841)" d="M109.2873 474.1376C 109.2873 473.8888 109.2397 473.6496 109.1445 473.4197C 109.0493 473.1899 108.9138 472.9871 108.7379 472.8112C 108.562 472.6353 108.3591 472.4997 108.1293 472.4045C 107.8995 472.3094 107.6602 472.2617 107.4114 472.2617C 107.1627 472.2617 106.9234 472.3094 106.6936 472.4045C 106.4637 472.4997 106.2609 472.6353 106.085 472.8112C 105.9091 472.9871 105.7735 473.1899 105.6783 473.4197C 105.5831 473.6496 105.5355 473.8888 105.5356 474.1376C 105.5355 474.3864 105.5832 474.6256 105.6783 474.8555C 105.7735 475.0853 105.9091 475.2881 106.085 475.4641C 106.2609 475.64 106.4637 475.7755 106.6936 475.8707C 106.9234 475.9659 107.1627 476.0135 107.4114 476.0135C 107.6602 476.0135 107.8995 475.9659 108.1293 475.8707C 108.3591 475.7755 108.562 475.64 108.7379 475.4641C 108.9138 475.2881 109.0493 475.0853 109.1445 474.8555C 109.2397 474.6256 109.2873 474.3864 109.2873 474.1376z" stroke="none" fill="#333333" fill-rule="nonzero" /><path id="312" transform="matrix(1 0 0 -1 0 841)" d="M124.3556 457.4588C 124.4771 457.7604 124.6388 458.2082 124.8406 458.8019L124.8406 458.8019L122.9925 458.8019L122.9925 458.8019L122.5361 457.4588L122.5361 457.4588L124.3556 457.4588zM125.0891 457.4588L126.9561 457.4588L126.9561 457.4588L127.4126 458.8019L127.4126 458.8019L125.5741 458.8019C 125.4899 458.5543 125.3283 458.1066 125.0891 457.4588zM118.8672 457.735C 120.1564 459.0242 121.3402 460.5642 122.4188 462.3551L122.4188 462.3551L123.0525 462.1455C 122.5018 461.2914 121.9468 460.4991 121.3874 459.7688L121.3874 459.7688L119.0743 452.9626L119.0743 452.9626L118.398 452.9626L118.398 452.9626L120.2335 458.3638C 119.79 457.8621 119.3435 457.3985 118.894 456.973C 118.8894 457.2397 118.8805 457.4937 118.8672 457.735zM121.6449 456.1537L122.4029 456.5062C 122.5257 456.0172 122.7483 455.5933 123.071 455.2345C 123.4118 455.5647 123.7487 456.0934 124.0815 456.8206L124.0815 456.8206L121.5952 456.8206L121.5952 456.8206L122.4855 459.4402L122.4855 459.4402L125.0575 459.4402L125.0575 459.4402L125.378 460.3832L125.378 460.3832L122.3297 460.3832L122.3297 460.3832L122.5498 461.031L122.5498 461.031L125.5981 461.031L125.5981 461.031L126.0352 462.317L126.0352 462.317L126.7687 462.317L126.7687 462.317L126.3316 461.031L126.3316 461.031L129.4085 461.031L129.4085 461.031L129.1883 460.3832L129.1883 460.3832L126.1115 460.3832L126.1115 460.3832L125.791 459.4402L125.791 459.4402L128.3535 459.4402L128.3535 459.4402L127.324 456.4109L127.324 456.4109L126.6 456.4109L126.6 456.4109L126.7392 456.8206L126.7392 456.8206L124.8197 456.8206C 124.4202 455.9347 124.0015 455.2678 123.5636 454.8201C 123.5583 454.8138 123.5535 454.809 123.5492 454.8058C 124.3382 454.2311 125.4977 453.8961 127.0276 453.8008C 126.7442 453.5278 126.48 453.2642 126.2349 453.0102C 124.7649 453.1975 123.6383 453.6103 122.8549 454.2486C 122.132 453.7564 121.167 453.3182 119.96 452.934C 119.883 453.1372 119.7902 453.3499 119.6816 453.5722C 120.8236 453.8961 121.7257 454.2708 122.3879 454.6963C 122.034 455.1122 121.7863 455.5981 121.6449 456.1537z" stroke="none" fill="#333333" fill-rule="nonzero" /><path id="313" transform="matrix(1 0 0 -1 0 841)" d="M131.6474 461.0882L131.0453 459.3163L133.7221 459.3163L134.3242 461.0882L131.6474 461.0882zM130.164 456.8492L132.8836 456.8492L132.8836 456.8492L133.489 458.6305L133.489 458.6305L130.8122 458.6305C 130.6219 458.0145 130.4059 457.4207 130.164 456.8492zM137.8869 461.0882L135.0863 461.0882L134.4841 459.3163L137.2848 459.3163L137.8869 461.0882zM133.6457 456.8492L136.4463 456.8492L137.0517 458.6305L134.2511 458.6305L133.6457 456.8492zM131.6211 453.134L132.6506 456.1633L132.6506 456.1633L129.8785 456.1633C 129.3216 454.8423 128.5651 453.7469 127.609 452.8768C 127.5151 453.0864 127.4022 453.3055 127.2703 453.5341C 127.8817 454.1184 128.3813 454.7661 128.769 455.4774C 129.1418 456.1633 129.5419 457.1349 129.9692 458.3923L129.9692 458.3923L131.1249 461.7931L131.1249 461.7931L138.8885 461.7931L138.8885 461.7931L136.3149 454.22C 136.058 453.4643 135.5708 453.0864 134.8532 453.0864C 134.415 453.0864 133.9261 453.0959 133.3864 453.115C 133.4259 453.3246 133.4678 453.5881 133.5122 453.9056C 134.0518 453.8675 134.493 453.8485 134.8359 453.8485C 135.2297 453.8485 135.4902 454.0358 135.6176 454.4105L135.6176 454.4105L136.2132 456.1633L136.2132 456.1633L133.4126 456.1633L133.4126 456.1633L132.3832 453.134L132.3832 453.134L131.6211 453.134z" stroke="none" fill="#333333" fill-rule="nonzero" /><path id="314" transform="matrix(1 0 0 -1 0 841)" d="M145.8014 461.3358L146.573 461.3358L144.5108 455.2678L143.7392 455.2678L145.8014 461.3358zM148.2181 462.3646L149.0088 462.3646L149.0088 462.3646L146.27 454.3057C 146.0002 453.5119 145.4812 453.115 144.7127 453.115C 144.4524 453.115 143.9898 453.1182 143.3251 453.1245C 143.3756 453.3849 143.425 453.6707 143.4736 453.9818C 144.0152 453.931 144.4384 453.9056 144.7433 453.9056C 145.1412 453.8993 145.4114 454.1057 145.5538 454.5248L145.5538 454.5248L148.2181 462.3646zM138.3772 456.8968L140.6158 456.8968L140.6158 456.8968L141.0172 458.078L141.0172 458.078L141.7793 458.078L141.7793 458.078L141.3779 456.8968L141.3779 456.8968L143.5593 456.8968L143.5593 456.8968L143.3197 456.1919L143.3197 456.1919L141.1383 456.1919L141.1383 456.1919L140.5685 454.5153C 141.3503 454.6105 142.1564 454.7122 142.9869 454.8201C 142.9114 454.5978 142.8399 454.3502 142.7725 454.0771C 140.8998 453.8548 139.0099 453.6103 137.103 453.3436L137.103 453.3436L137.1559 454.1438C 137.9936 454.2263 138.8669 454.32 139.7757 454.4248L139.7757 454.4248L140.3762 456.1919L140.3762 456.1919L138.1376 456.1919L138.1376 456.1919L138.3772 456.8968zM143.5385 460.5357C 143.7919 459.7863 144.0027 459.0052 144.171 458.1923C 143.8909 458.078 143.6032 457.951 143.308 457.8112C 143.2768 458.0462 143.2413 458.278 143.2015 458.5067C 141.7876 458.3733 140.4446 458.2431 139.1726 458.1161L139.1726 458.1161L139.0984 458.9067C 139.5336 459.1036 139.958 459.418 140.3715 459.8498C 140.7411 460.2181 141.1212 460.6309 141.5115 461.0882L141.5115 461.0882L139.7349 461.0882L139.7349 461.0882L139.9745 461.7931L139.9745 461.7931L145.4424 461.7931L145.4424 461.7931L145.2028 461.0882L145.2028 461.0882L142.4117 461.0882C 141.6656 460.2848 140.9379 459.5545 140.2287 458.8972C 141.1563 458.9639 142.1052 459.0464 143.0754 459.1449C 142.99 459.51 142.8917 459.8657 142.7807 460.2118L142.7807 460.2118L143.5385 460.5357z" stroke="none" fill="#333333" fill-rule="nonzero" /><path id="315" transform="matrix(1 0 0 -1 0 841)" d="M153.3318 458.1828L154.0585 458.6114C 154.4807 457.7795 154.7978 457.0587 155.0097 456.449L155.0097 456.449L154.1365 455.9537C 153.9359 456.6904 153.6677 457.4334 153.3318 458.1828zM152.2295 460.0689L150.0862 460.0689L149.2995 457.7541L151.4428 457.7541L152.2295 460.0689zM148.2474 454.6582L150.3907 454.6582L151.2097 457.0682L149.0664 457.0682L148.2474 454.6582zM152.7136 458.8305C 153.6321 459.7768 154.5373 460.9548 155.4292 462.3646L155.4292 462.3646L156.1615 462.1646C 155.8366 461.6851 155.5182 461.2342 155.2064 460.8119L155.2064 460.8119L158.2738 460.8119C 157.0882 457.5477 156.3265 455.4933 155.9887 454.6487C 155.6054 453.6516 154.9121 453.1531 153.9087 453.1531C 153.3308 453.1531 152.7498 453.1721 152.1658 453.2102C 152.2356 453.5278 152.2808 453.8104 152.3015 454.058L152.3015 454.058L152.33 454.058C 152.9349 453.9691 153.5009 453.9247 154.028 453.9247C 154.6059 453.9247 155.0206 454.2295 155.2723 454.8392C 155.6637 455.7854 156.3102 457.5382 157.2117 460.0975L157.2117 460.0975L154.6588 460.0975C 154.1743 459.4846 153.705 458.9448 153.2511 458.4781C 153.1206 458.5987 152.9415 458.7162 152.7136 458.8305zM149.5669 460.7833L150.529 460.7833C 150.9604 461.3612 151.3332 461.8883 151.6474 462.3646L151.6474 462.3646L152.3699 462.136C 152.0048 461.6502 151.6579 461.1993 151.3291 460.7833L151.3291 460.7833L153.2343 460.7833L153.2343 460.7833L150.6574 453.2007L150.6574 453.2007L149.8954 453.2007L149.8954 453.2007L150.1479 453.9437L150.1479 453.9437L148.0045 453.9437L148.0045 453.9437L147.7294 453.134L147.7294 453.134L146.9673 453.134L146.9673 453.134L149.5669 460.7833z" stroke="none" fill="#333333" fill-rule="nonzero" /><path id="316" transform="matrix(1 0 0 -1 0 841)" d="M165.8985 458.0208L162.855 458.0208C 162.7998 457.0174 162.9879 456.1696 163.4195 455.4774C 164.4106 456.1887 165.237 457.0365 165.8985 458.0208zM157.7143 457.3159C 158.2402 457.4525 158.7497 457.5874 159.2427 457.7208L159.2427 457.7208L159.9404 459.7736L159.9404 459.7736L158.6734 459.7736L158.6734 459.7736L158.8968 460.4309L158.8968 460.4309L160.1638 460.4309L160.1638 460.4309L160.7918 462.2789L160.7918 462.2789L161.5253 462.2789L161.5253 462.2789L160.8973 460.4309L160.8973 460.4309L162.0118 460.4309L162.0118 460.4309L161.7884 459.7736L161.7884 459.7736L160.6738 459.7736L160.6738 459.7736L160.0539 457.9494C 160.459 458.0669 160.854 458.1828 161.239 458.2971C 161.1354 457.9922 161.0576 457.7446 161.0055 457.554C 160.6079 457.4398 160.2065 457.3239 159.8014 457.2064L159.8014 457.2064L158.7574 454.1342C 158.5286 453.4611 158.0956 453.1213 157.4584 453.115C 157.2022 453.1086 156.8974 453.1086 156.5439 453.115C 156.5965 453.3817 156.6469 453.6516 156.6952 453.9247C 157.057 453.8866 157.3331 453.8675 157.5236 453.8675C 157.7967 453.8675 157.9818 454.0104 158.0789 454.2962L158.0789 454.2962L158.9854 456.9634C 158.5081 456.8206 158.0267 456.6745 157.5409 456.5253L157.5409 456.5253L157.7143 457.3159zM161.488 458.0208L161.7017 458.6495L161.7017 458.6495L164.1498 458.6495L164.1498 458.6495L164.6452 460.107L164.6452 460.107L162.1589 460.107L162.1589 460.107L162.3952 460.8024L162.3952 460.8024L164.8815 460.8024L164.8815 460.8024L165.4027 462.3361L165.4027 462.3361L166.1648 462.3361L166.1648 462.3361L165.6435 460.8024L165.6435 460.8024L168.2346 460.8024L168.2346 460.8024L167.9983 460.107L167.9983 460.107L165.4073 460.107L165.4073 460.107L164.9119 458.6495L164.9119 458.6495L166.9409 458.6495L166.9409 458.6495L166.7467 458.078C 165.8673 456.8079 164.881 455.7791 163.7879 454.9916C 164.3113 454.4296 165.0499 454.0009 166.0038 453.7056C 165.6675 453.4261 165.3812 453.1817 165.1449 452.9721C 164.2553 453.3912 163.5537 453.9009 163.0401 454.501C 161.9913 453.8723 160.833 453.3372 159.5653 452.8959C 159.501 453.0991 159.4094 453.3246 159.2904 453.5722C 160.5491 453.9406 161.6794 454.4168 162.6814 455.0011C 162.2376 455.7695 162.0509 456.7761 162.1215 458.0208L162.1215 458.0208L161.488 458.0208z" stroke="none" fill="#333333" fill-rule="nonzero" /><path id="317" transform="matrix(1 0 0 -1 0 841)" d="M175.0451 461.6978L175.7122 462.2313C 176.1374 461.8566 176.5422 461.4406 176.9266 460.9834L176.9266 460.9834L176.1924 460.3928C 175.8251 460.8627 175.4426 461.2977 175.0451 461.6978zM176.2041 454.8773C 175.8871 454.6169 175.5975 454.3629 175.3355 454.1152C 174.1319 455.2361 173.4029 456.819 173.1485 458.8639L173.1485 458.8639L171.1462 452.9721L171.1462 452.9721L170.3841 452.9721L170.3841 452.9721L172.3929 458.8829C 170.8563 456.9777 169.0035 455.3472 166.8344 453.9914C 166.7574 454.1946 166.6553 454.4359 166.528 454.7153C 168.6529 455.9505 170.5385 457.5001 172.1849 459.364L172.1849 459.364L168.4126 459.364L168.4126 459.364L168.6522 460.0689L168.6522 460.0689L172.7959 460.0689L172.7959 460.0689L173.5794 462.3742L173.5794 462.3742L174.3414 462.3742L174.3414 462.3742L173.558 460.0689L173.558 460.0689L177.7208 460.0689L177.7208 460.0689L177.4813 459.364L177.4813 459.364L173.6662 459.364C 174.0199 457.2937 174.8659 455.7981 176.2041 454.8773z" stroke="none" fill="#333333" fill-rule="nonzero" /></g><g clip-path="url(#24)"><g clip-path="url(#25)"><g clip-path="url(#26)"><g clip-path="url(#27)"><path id="340" transform="matrix(1 0 0 -1 0 841)" d="M280.9413 436.9953L399.4846 436.9953L399.4846 436.245L280.9413 436.245z" stroke="none" fill="#555555" fill-rule="nonzero" /></g></g></g></g><g clip-path="url(#28)"><path id="367" transform="matrix(1 0 0 -1 0 841)" d="M75.52161 406.9814L520.4783 406.9814L520.4783 406.231L75.52161 406.231z" stroke="none" fill="#EEEEEE" fill-rule="nonzero" /></g><g clip-path="url(#29)"><path id="368" transform="matrix(1 0 0 -1 0 841)" d="M77.02231 410.9207C 76.71279 410.9207 76.45955 411.1739 76.45955 411.4834C 76.45955 411.7953 76.71045 412.0462 77.02231 412.0462C 77.33418 412.0462 77.58508 411.7953 77.58508 411.4834C 77.58508 411.1739 77.33418 410.9207 77.02231 410.9207zM80.86316 414.7896L79.53364 416.1192L79.53364 416.1192L75.9601 412.5433C 75.37389 411.9571 75.37389 411.0074 75.9601 410.4212C 76.54631 409.835 77.49597 409.835 78.08218 410.4212L78.08218 410.4212L80.9804 413.3194C 80.80219 413.7861 80.74826 414.2949 80.86316 414.7896L80.86316 414.7896L80.86316 414.7896zM83.29945 416.7124C 83.96304 416.7124 84.58676 416.4545 85.05573 415.9855L85.05573 415.9855L85.51063 415.5306C 85.88111 415.6924 86.23284 415.9175 86.53767 416.2224C 87.40761 417.0923 87.70306 418.3163 87.42636 419.4277C 87.37478 419.6388 87.10981 419.7115 86.95505 419.5567L86.95505 419.5567L85.21049 417.8122L85.21049 417.8122L83.61835 418.0771L83.61835 418.0771L83.35338 419.6693L83.35338 419.6693L85.09794 421.4138C 85.2527 421.5686 85.17766 421.8336 84.96428 421.8875C 83.85283 422.1618 82.62882 421.8664 81.76123 420.9988C 81.09295 420.3305 80.77874 419.4489 80.79516 418.5695L80.79516 418.5695L82.72027 416.6444C 82.9102 416.689 83.10717 416.7124 83.29945 416.7124L83.29945 416.7124L83.29945 416.7124zM87.27161 412.7098L84.52579 415.4556C 83.98414 415.9973 83.17517 416.1028 82.52331 415.7815L82.52331 415.7815L80.0237 418.2811L80.0237 418.2811L80.0237 419.7373L80.0237 419.7373L77.02231 421.9883L77.02231 421.9883L75.52161 420.4876L75.52161 420.4876L77.77266 417.4862L77.77266 417.4862L79.22881 417.4862L79.22881 417.4862L81.7284 414.9866C 81.40951 414.3347 81.51268 413.5258 82.05434 412.9841L82.05434 412.9841L84.80014 410.2383C 85.14249 409.896 85.69587 409.896 86.03587 410.2383L86.03587 410.2383L87.27161 411.4741C 87.6116 411.8164 87.6116 412.3698 87.27161 412.7098L87.27161 412.7098L87.27161 412.7098z" stroke="none" fill="#000000" fill-rule="nonzero" /></g><g clip-path="url(#30)"><path id="375" transform="matrix(1 0 0 -1 0 841)" d="M109.2873 396.1013C 109.2873 395.8526 109.2397 395.6133 109.1445 395.3835C 109.0493 395.1537 108.9138 394.9508 108.7379 394.7749C 108.562 394.599 108.3591 394.4635 108.1293 394.3683C 107.8995 394.2731 107.6602 394.2255 107.4114 394.2255C 107.1627 394.2255 106.9234 394.2731 106.6936 394.3683C 106.4637 394.4635 106.2609 394.599 106.085 394.7749C 105.9091 394.9508 105.7735 395.1537 105.6783 395.3835C 105.5831 395.6133 105.5355 395.8526 105.5356 396.1013C 105.5355 396.3501 105.5832 396.5894 105.6783 396.8192C 105.7735 397.049 105.9091 397.252 106.085 397.4278C 106.2609 397.6037 106.4637 397.7392 106.6936 397.8344C 106.9234 397.9296 107.1627 397.9772 107.4114 397.9772C 107.6602 397.9772 107.8995 397.9296 108.1293 397.8344C 108.3591 397.7392 108.562 397.6037 108.7379 397.4278C 108.9138 397.252 109.0493 397.049 109.1445 396.8192C 109.2397 396.5894 109.2873 396.3501 109.2873 396.1013z" stroke="none" fill="#333333" fill-rule="nonzero" /><path id="384" transform="matrix(1 0 0 -1 0 841)" d="M109.2873 381.0944C 109.2873 380.8456 109.2397 380.6063 109.1445 380.3766C 109.0493 380.1468 108.9138 379.9439 108.7379 379.7679C 108.562 379.5921 108.3591 379.4565 108.1293 379.3613C 107.8995 379.2661 107.6602 379.2185 107.4114 379.2185C 107.1627 379.2185 106.9234 379.2661 106.6936 379.3613C 106.4637 379.4565 106.2609 379.5921 106.085 379.7679C 105.9091 379.9439 105.7735 380.1468 105.6783 380.3766C 105.5831 380.6063 105.5355 380.8456 105.5356 381.0944C 105.5355 381.3431 105.5832 381.5824 105.6783 381.8123C 105.7735 382.0421 105.9091 382.2449 106.085 382.4208C 106.2609 382.5967 106.4637 382.7323 106.6936 382.8275C 106.9234 382.9226 107.1627 382.9702 107.4114 382.9702C 107.6602 382.9702 107.8995 382.9226 108.1293 382.8275C 108.3591 382.7323 108.562 382.5967 108.7379 382.4208C 108.9138 382.2449 109.0493 382.0421 109.1445 381.8123C 109.2397 381.5824 109.2873 381.3431 109.2873 381.0944z" stroke="none" fill="#333333" fill-rule="nonzero" /><path id="399" transform="matrix(1 0 0 -1 0 841)" d="M109.2873 366.0874C 109.2873 365.8387 109.2397 365.5994 109.1445 365.3696C 109.0493 365.1398 108.9138 364.9369 108.7379 364.761C 108.562 364.5851 108.3591 364.4496 108.1293 364.3543C 107.8995 364.2591 107.6602 364.2115 107.4114 364.2115C 107.1627 364.2115 106.9234 364.2591 106.6936 364.3543C 106.4637 364.4496 106.2609 364.5851 106.085 364.761C 105.9091 364.9369 105.7735 365.1398 105.6783 365.3696C 105.5831 365.5994 105.5355 365.8387 105.5356 366.0874C 105.5355 366.3362 105.5832 366.5755 105.6783 366.8053C 105.7735 367.0352 105.9091 367.238 106.085 367.4138C 106.2609 367.5898 106.4637 367.7253 106.6936 367.8205C 106.9234 367.9156 107.1627 367.9633 107.4114 367.9633C 107.6602 367.9633 107.8995 367.9156 108.1293 367.8205C 108.3591 367.7253 108.562 367.5898 108.7379 367.4138C 108.9138 367.238 109.0493 367.0352 109.1445 366.8053C 109.2397 366.5755 109.2873 366.3362 109.2873 366.0874z" stroke="none" fill="#333333" fill-rule="nonzero" /><path id="409" transform="matrix(1 0 0 -1 0 841)" d="M109.2873 351.0804C 109.2873 350.8317 109.2397 350.5924 109.1445 350.3627C 109.0493 350.1328 108.9138 349.9299 108.7379 349.754C 108.562 349.5782 108.3591 349.4426 108.1293 349.3474C 107.8995 349.2522 107.6602 349.2046 107.4114 349.2045C 107.1627 349.2046 106.9234 349.2522 106.6936 349.3474C 106.4637 349.4426 106.2609 349.5782 106.085 349.754C 105.9091 349.9299 105.7735 350.1328 105.6783 350.3627C 105.5831 350.5924 105.5355 350.8317 105.5356 351.0804C 105.5355 351.3292 105.5832 351.5685 105.6783 351.7984C 105.7735 352.0281 105.9091 352.231 106.085 352.4069C 106.2609 352.5828 106.4637 352.7184 106.6936 352.8135C 106.9234 352.9087 107.1627 352.9563 107.4114 352.9563C 107.6602 352.9563 107.8995 352.9087 108.1293 352.8135C 108.3591 352.7184 108.562 352.5828 108.7379 352.4069C 108.9138 352.231 109.0493 352.0281 109.1445 351.7984C 109.2397 351.5685 109.2873 351.3292 109.2873 351.0804z" stroke="none" fill="#333333" fill-rule="nonzero" /><path id="419" transform="matrix(1 0 0 -1 0 841)" d="M109.2873 336.0734C 109.2873 335.8247 109.2397 335.5854 109.1445 335.3556C 109.0493 335.1258 108.9138 334.9229 108.7379 334.747C 108.562 334.5711 108.3591 334.4356 108.1293 334.3404C 107.8995 334.2452 107.6602 334.1976 107.4114 334.1976C 107.1627 334.1976 106.9234 334.2452 106.6936 334.3404C 106.4637 334.4356 106.2609 334.5711 106.085 334.747C 105.9091 334.9229 105.7735 335.1258 105.6783 335.3556C 105.5831 335.5854 105.5355 335.8247 105.5356 336.0734C 105.5355 336.3222 105.5832 336.5616 105.6783 336.7913C 105.7735 337.0212 105.9091 337.224 106.085 337.3999C 106.2609 337.5758 106.4637 337.7113 106.6936 337.8065C 106.9234 337.9017 107.1627 337.9493 107.4114 337.9493C 107.6602 337.9493 107.8995 337.9017 108.1293 337.8065C 108.3591 337.7113 108.562 337.5758 108.7379 337.3999C 108.9138 337.224 109.0493 337.0212 109.1445 336.7913C 109.2397 336.5616 109.2873 336.3222 109.2873 336.0734z" stroke="none" fill="#333333" fill-rule="nonzero" /><path id="430" transform="matrix(1 0 0 -1 0 841)" d="M109.2873 321.0665C 109.2873 320.8177 109.2397 320.5785 109.1445 320.3486C 109.0493 320.1189 108.9138 319.916 108.7379 319.7401C 108.562 319.5641 108.3591 319.4286 108.1293 319.3334C 107.8995 319.2382 107.6602 319.1906 107.4114 319.1906C 107.1627 319.1906 106.9234 319.2382 106.6936 319.3334C 106.4637 319.4286 106.2609 319.5641 106.085 319.7401C 105.9091 319.916 105.7735 320.1189 105.6783 320.3486C 105.5831 320.5785 105.5355 320.8177 105.5356 321.0665C 105.5355 321.3153 105.5832 321.5546 105.6783 321.7844C 105.7735 322.0143 105.9091 322.2171 106.085 322.3929C 106.2609 322.5688 106.4637 322.7044 106.6936 322.7996C 106.9234 322.8947 107.1627 322.9423 107.4114 322.9423C 107.6602 322.9423 107.8995 322.8947 108.1293 322.7996C 108.3591 322.7044 108.562 322.5688 108.7379 322.3929C 108.9138 322.2171 109.0493 322.0143 109.1445 321.7844C 109.2397 321.5546 109.2873 321.3153 109.2873 321.0665z" stroke="none" fill="#333333" fill-rule="nonzero" /><path id="453" transform="matrix(1 0 0 -1 0 841)" d="M109.2873 306.0595C 109.2873 305.8108 109.2397 305.5715 109.1445 305.3416C 109.0493 305.1118 108.9138 304.909 108.7379 304.7331C 108.562 304.5572 108.3591 304.4217 108.1293 304.3264C 107.8995 304.2312 107.6602 304.1836 107.4114 304.1836C 107.1627 304.1836 106.9234 304.2312 106.6936 304.3264C 106.4637 304.4217 106.2609 304.5572 106.085 304.7331C 105.9091 304.909 105.7735 305.1118 105.6783 305.3416C 105.5831 305.5715 105.5355 305.8108 105.5356 306.0595C 105.5355 306.3083 105.5832 306.5476 105.6783 306.7774C 105.7735 307.0073 105.9091 307.2101 106.085 307.386C 106.2609 307.5619 106.4637 307.6974 106.6936 307.7927C 106.9234 307.8878 107.1627 307.9354 107.4114 307.9354C 107.6602 307.9354 107.8995 307.8878 108.1293 307.7927C 108.3591 307.6974 108.562 307.5619 108.7379 307.386C 108.9138 307.2101 109.0493 307.0073 109.1445 306.7774C 109.2397 306.5476 109.2873 306.3083 109.2873 306.0595z" stroke="none" fill="#333333" fill-rule="nonzero" /></g></g></g></svg>